<svg id="Layer_1"  preserveAspectRatio="xMidYMid meet" data-name="Layer 1" xmlns="http://www.w3.org/2000/svg" width="24" height="18.9031" viewBox="0 0 24 18.9031"><defs><style>.cls-1{fill:#231f20;}</style></defs><title>nav_icon</title><path class="cls-1" d="M7.0276,9.676c3.28.7978,4.987,1.9728,4.987,4.5665,0,2.9258-2.2832,4.655-5.5421,4.655A9.5585,9.5585,0,0,1,0,16.4148l1.6407-1.9512a7.1416,7.1416,0,0,0,4.8986,2.017c1.6849,0,2.748-.7752,2.748-1.9728,0-1.13-.6191-1.7291-3.5015-2.3933C2.4827,11.3158.6209,10.34.6209,7.4586c0-2.7038,2.2165-4.5214,5.2975-4.5214a8.6016,8.6016,0,0,1,5.6305,1.95l-1.462,2.0612A7.0532,7.0532,0,0,0,5.8742,5.3532c-1.5956,0-2.5269.82-2.5269,1.8618C3.3473,8.4342,4.0566,8.9667,7.0276,9.676Z"/><path class="cls-1" d="M20.6536,7.2206c0-1.0414-.9313-1.8618-2.5269-1.8618A7.0527,7.0527,0,0,0,13.914,6.9544L12.452,4.8931a8.602,8.602,0,0,1,5.6305-1.95c3.081,0,5.2975,1.8176,5.2975,4.5214,0,2.8816-1.8618,3.8572-5.1648,4.6558-2.8825.6643-3.5016,1.2635-3.5016,2.3934,0,1.1976,1.0631,1.9728,2.748,1.9728a7.1416,7.1416,0,0,0,4.8986-2.017L24,16.42a9.5542,9.5542,0,0,1-6.4716,2.4827c-3.2589,0-5.5421-1.7291-5.5421-4.6549,0-2.5937,1.7075-3.7687,4.987-4.5665C19.9443,8.9723,20.6536,8.44,20.6536,7.2206Z"/><path class="cls-1" d="M10.7844,1.201a1.2019,1.2019,0,1,1,1.201,1.201A1.1968,1.1968,0,0,1,10.7844,1.201Z"/></svg>
